<svg xmlns="http://www.w3.org/2000/svg" viewBox="0 0 46 46"><defs><style>.cls-1{fill:none;}.cls-2{opacity:0.8;}.cls-3{fill:#525352;}</style></defs><title>mail</title><g id="Layer_2" data-name="Layer 2"><g id="Footer"><rect class="cls-1" width="46" height="46"/><g class="cls-2"><path class="cls-3" d="M23,24.28h0a1.21,1.21,0,0,0,.66-.19l.05,0,0,0,.6-.5L37.75,11.71a.17.17,0,0,0-.13-.07H8.38a.16.16,0,0,0-.1,0L22.3,24A1.17,1.17,0,0,0,23,24.28Zm-14.82-11V30.84L18,22.17ZM28,22.23l9.76,8.62V13.38ZM24.62,25a2.55,2.55,0,0,1-3.15,0L19,23,8.22,32.52v0a.17.17,0,0,0,.17.17H37.62a.17.17,0,0,0,.17-.17v0L27,23.08Z"/></g></g></g></svg>