<svg xmlns="http://www.w3.org/2000/svg" viewBox="0 0 46 46"><defs><style>.cls-1{fill:none;}.cls-2{opacity:0.8;}.cls-3{fill:#525352;}</style></defs><title>twitter</title><g id="Layer_2" data-name="Layer 2"><g id="Footer"><rect class="cls-1" width="46" height="46"/><g class="cls-2"><path class="cls-3" d="M35.64,13.87a11,11,0,0,1-3.16.86,5.51,5.51,0,0,0,2.42-3A11,11,0,0,1,31.41,13,5.5,5.5,0,0,0,22,18a15.61,15.61,0,0,1-11.34-5.75,5.51,5.51,0,0,0,1.7,7.34,5.46,5.46,0,0,1-2.49-.69V19a5.5,5.5,0,0,0,4.41,5.39,5.52,5.52,0,0,1-2.48.1A5.51,5.51,0,0,0,17,28.32,11.1,11.1,0,0,1,8.84,30.6,15.64,15.64,0,0,0,32.92,17.42c0-.24,0-.48,0-.71a11.15,11.15,0,0,0,2.74-2.85Z"/></g></g></g></svg>